<svg width="14.000000" height="13.716309" viewBox="0 0 14 13.7163" fill="none" xmlns="http://www.w3.org/2000/svg" xmlns:xlink="http://www.w3.org/1999/xlink">
	<desc>
			Created with Pixso.
	</desc>
	<defs/>
	<path id="path" d="M12.54 13.71L1.09 13.71C0.49 13.71 0 13.22 0 12.61L0 1.09C0 0.49 0.49 0 1.09 0L8.47 0C8.77 0 9.02 0.24 9.02 0.54C9.02 0.85 8.77 1.09 8.47 1.09L1.92 1.09C1.46 1.09 1.09 1.46 1.09 1.92L1.09 11.78C1.09 12.24 1.46 12.61 1.92 12.61L11.72 12.61C12.17 12.61 12.54 12.24 12.54 11.78L12.54 5.46C12.54 5.16 12.79 4.91 13.09 4.91C13.4 4.91 13.64 5.16 13.64 5.46L13.64 12.61C13.64 13.22 13.15 13.71 12.54 13.71ZM12.97 0.26C12.62 -0.09 12.05 -0.09 11.7 0.26L4.92 7.04L3.72 9.71C3.66 9.97 3.89 10.21 4.15 10.16L6.93 9.09L13.73 2.29C14.08 1.94 14.08 1.37 13.73 1.02L12.97 0.26ZM13.09 1.65L12.55 2.2L11.79 1.44L12.34 0.9L13.09 1.65ZM4.94 9.2C4.82 9.28 4.68 9.13 4.77 9.02L5.52 7.69L6.25 8.42L4.94 9.2ZM6.17 7.06L11.16 2.08L11.91 2.84L6.93 7.82L6.17 7.06Z" fill="#1C1C1E" fill-opacity="1.000000" fill-rule="nonzero"/>
</svg>
