<svg width="10.500000" height="14.000000" viewBox="0 0 10.5 14" fill="none" xmlns="http://www.w3.org/2000/svg" xmlns:xlink="http://www.w3.org/1999/xlink">
	<defs>
		<linearGradient x1="0.000003" y1="0.000001" x2="11.559570" y2="12.059329" id="paint_linear_163_154_0" gradientUnits="userSpaceOnUse">
			<stop stop-color="#2A5ACE"/>
			<stop offset="1.000000" stop-color="#6167DB"/>
		</linearGradient>
	</defs>
	<path id="path" d="M1.75 6.12L5.68 6.12C5.75 6.12 5.83 6.12 5.9 6.11C5.97 6.1 6.04 6.09 6.11 6.08C6.18 6.06 6.25 6.05 6.32 6.03C6.39 6.01 6.45 5.98 6.52 5.95C6.59 5.93 6.65 5.9 6.71 5.86C6.78 5.83 6.84 5.79 6.9 5.75C6.96 5.71 7.01 5.67 7.07 5.62C7.13 5.58 7.18 5.53 7.23 5.48C7.28 5.43 7.33 5.38 7.37 5.32C7.42 5.26 7.46 5.21 7.5 5.15C7.54 5.09 7.58 5.03 7.61 4.96C7.65 4.9 7.68 4.84 7.7 4.77C7.73 4.7 7.75 4.64 7.78 4.57C7.8 4.5 7.81 4.43 7.83 4.36C7.84 4.29 7.85 4.22 7.86 4.15C7.87 4.08 7.87 4 7.87 3.93C7.87 3.86 7.87 3.79 7.86 3.72C7.85 3.65 7.84 3.58 7.83 3.51C7.81 3.44 7.8 3.37 7.78 3.3C7.75 3.23 7.73 3.16 7.7 3.1C7.68 3.03 7.65 2.96 7.61 2.9C7.58 2.84 7.54 2.78 7.5 2.72C7.46 2.66 7.42 2.6 7.37 2.54C7.33 2.49 7.28 2.44 7.23 2.39C7.18 2.34 7.13 2.29 7.07 2.24C7.01 2.2 6.96 2.15 6.9 2.11C6.84 2.07 6.78 2.04 6.71 2C6.65 1.97 6.59 1.94 6.52 1.91C6.45 1.88 6.39 1.86 6.32 1.84C6.25 1.82 6.18 1.8 6.11 1.79C6.04 1.77 5.97 1.76 5.9 1.76C5.83 1.75 5.75 1.75 5.68 1.75L1.75 1.75L1.75 6.12ZM10.5 10.06C10.5 10.19 10.49 10.32 10.48 10.44C10.46 10.57 10.44 10.7 10.42 10.83C10.39 10.95 10.36 11.08 10.33 11.2C10.29 11.32 10.24 11.45 10.2 11.56C10.15 11.68 10.09 11.8 10.03 11.91C9.97 12.03 9.9 12.14 9.83 12.25C9.76 12.35 9.68 12.46 9.6 12.56C9.52 12.66 9.43 12.75 9.34 12.84C9.25 12.93 9.15 13.02 9.05 13.1C8.95 13.18 8.85 13.26 8.75 13.33C8.64 13.4 8.53 13.47 8.41 13.53C8.3 13.59 8.18 13.65 8.06 13.7C7.95 13.74 7.82 13.79 7.7 13.83C7.58 13.86 7.45 13.89 7.33 13.92C7.2 13.94 7.07 13.96 6.94 13.98C6.82 13.99 6.69 14 6.56 14L0 14L0 0L5.68 0C5.87 0 6.07 0.01 6.25 0.04C6.44 0.06 6.63 0.11 6.81 0.16C7 0.22 7.18 0.28 7.35 0.37C7.52 0.45 7.69 0.54 7.85 0.65C8.01 0.75 8.16 0.87 8.31 1C8.45 1.12 8.58 1.26 8.7 1.41C8.83 1.55 8.94 1.71 9.04 1.87C9.14 2.04 9.23 2.21 9.3 2.38C9.38 2.56 9.44 2.74 9.49 2.93C9.54 3.11 9.57 3.3 9.59 3.49C9.62 3.68 9.62 3.87 9.62 4.06C9.61 4.25 9.59 4.44 9.56 4.63C9.52 4.82 9.48 5.01 9.41 5.19C9.35 5.37 9.28 5.55 9.19 5.72C9.11 5.89 9.01 6.05 8.9 6.21C8.79 6.36 8.66 6.51 8.53 6.65C8.68 6.74 8.82 6.83 8.96 6.94C9.09 7.04 9.22 7.15 9.34 7.28C9.47 7.4 9.58 7.53 9.68 7.66C9.79 7.8 9.88 7.94 9.97 8.09C10.05 8.24 10.13 8.39 10.2 8.55C10.26 8.71 10.32 8.87 10.36 9.04C10.41 9.21 10.44 9.37 10.46 9.54C10.48 9.71 10.5 9.89 10.5 10.06ZM1.75 7.87L1.75 12.25L6.56 12.25C6.63 12.25 6.7 12.24 6.77 12.23C6.84 12.23 6.91 12.22 6.98 12.2C7.05 12.19 7.12 12.17 7.19 12.15C7.26 12.13 7.33 12.11 7.39 12.08C7.46 12.05 7.53 12.02 7.59 11.99C7.65 11.95 7.71 11.92 7.77 11.88C7.83 11.84 7.89 11.79 7.95 11.75C8 11.7 8.05 11.65 8.1 11.6C8.16 11.55 8.2 11.5 8.25 11.45C8.29 11.39 8.34 11.33 8.38 11.27C8.42 11.21 8.45 11.15 8.49 11.09C8.52 11.03 8.55 10.96 8.58 10.89C8.61 10.83 8.63 10.76 8.65 10.69C8.67 10.62 8.69 10.55 8.7 10.48C8.72 10.41 8.73 10.34 8.73 10.27C8.74 10.2 8.75 10.13 8.75 10.06C8.75 9.99 8.74 9.91 8.73 9.84C8.73 9.77 8.72 9.7 8.7 9.63C8.69 9.56 8.67 9.49 8.65 9.42C8.63 9.35 8.61 9.29 8.58 9.22C8.55 9.15 8.52 9.09 8.49 9.03C8.45 8.96 8.42 8.9 8.38 8.84C8.34 8.78 8.29 8.73 8.25 8.67C8.2 8.61 8.16 8.56 8.1 8.51C8.05 8.46 8 8.41 7.95 8.37C7.89 8.32 7.83 8.28 7.77 8.24C7.71 8.2 7.65 8.16 7.59 8.13C7.53 8.09 7.46 8.06 7.39 8.04C7.33 8.01 7.26 7.98 7.19 7.96C7.12 7.94 7.05 7.93 6.98 7.91C6.91 7.9 6.84 7.89 6.77 7.88C6.7 7.87 6.63 7.87 6.56 7.87L1.75 7.87Z" fill="url(#paint_linear_163_154_0)" fill-opacity="1.000000" fill-rule="nonzero"/>
</svg>
