<svg width="11.789062" height="14.000000" viewBox="0 0 11.7891 14" fill="none" xmlns="http://www.w3.org/2000/svg" xmlns:xlink="http://www.w3.org/1999/xlink">
	<desc>
			Created with Pixso.
	</desc>
	<defs/>
	<path id="path" d="M2.94 0L2.94 6.63C2.94 6.72 2.95 6.82 2.96 6.92C2.97 7.01 2.98 7.11 3 7.2C3.02 7.3 3.04 7.39 3.07 7.48C3.1 7.57 3.13 7.67 3.17 7.75C3.2 7.84 3.25 7.93 3.29 8.02C3.34 8.1 3.39 8.18 3.44 8.26C3.49 8.34 3.55 8.42 3.61 8.5C3.67 8.57 3.74 8.64 3.81 8.71C3.87 8.78 3.95 8.84 4.02 8.9C4.09 8.97 4.17 9.02 4.25 9.08C4.33 9.13 4.41 9.18 4.5 9.23C4.59 9.27 4.67 9.31 4.76 9.35C4.85 9.39 4.94 9.42 5.03 9.45C5.13 9.47 5.22 9.5 5.31 9.52C5.41 9.54 5.5 9.55 5.6 9.56C5.7 9.57 5.79 9.57 5.89 9.57C5.99 9.57 6.08 9.57 6.18 9.56C6.27 9.55 6.37 9.54 6.46 9.52C6.56 9.5 6.65 9.47 6.75 9.45C6.84 9.42 6.93 9.39 7.02 9.35C7.11 9.31 7.19 9.27 7.28 9.23C7.36 9.18 7.45 9.13 7.53 9.08C7.61 9.02 7.68 8.97 7.76 8.9C7.83 8.84 7.91 8.78 7.97 8.71C8.04 8.64 8.11 8.57 8.17 8.5C8.23 8.42 8.29 8.34 8.34 8.26C8.39 8.18 8.44 8.1 8.49 8.02C8.54 7.93 8.58 7.84 8.61 7.75C8.65 7.67 8.68 7.57 8.71 7.48C8.74 7.39 8.76 7.3 8.78 7.2C8.8 7.11 8.81 7.01 8.82 6.92C8.83 6.82 8.84 6.72 8.84 6.63L8.84 0L10.31 0L10.31 6.63C10.31 6.77 10.3 6.92 10.29 7.06C10.28 7.2 10.25 7.35 10.23 7.49C10.2 7.63 10.16 7.77 10.12 7.91C10.08 8.05 10.03 8.18 9.97 8.32C9.92 8.45 9.86 8.58 9.79 8.71C9.72 8.84 9.65 8.96 9.57 9.08C9.49 9.2 9.4 9.32 9.31 9.43C9.22 9.54 9.12 9.65 9.02 9.75C8.91 9.86 8.81 9.95 8.69 10.04C8.58 10.14 8.47 10.22 8.35 10.3C8.23 10.38 8.1 10.46 7.97 10.53C7.85 10.59 7.72 10.66 7.58 10.71C7.45 10.77 7.31 10.82 7.17 10.86C7.03 10.9 6.89 10.93 6.75 10.96C6.61 10.99 6.47 11.01 6.32 11.03C6.18 11.04 6.03 11.05 5.89 11.05C5.75 11.05 5.6 11.04 5.46 11.03C5.31 11.01 5.17 10.99 5.03 10.96C4.89 10.93 4.75 10.9 4.61 10.86C4.47 10.82 4.33 10.77 4.2 10.71C4.06 10.66 3.93 10.59 3.81 10.53C3.68 10.46 3.55 10.38 3.43 10.3C3.31 10.22 3.2 10.14 3.08 10.04C2.97 9.95 2.87 9.86 2.76 9.75C2.66 9.65 2.56 9.54 2.47 9.43C2.38 9.32 2.29 9.2 2.21 9.08C2.13 8.96 2.06 8.84 1.99 8.71C1.92 8.58 1.86 8.45 1.81 8.32C1.75 8.18 1.7 8.05 1.66 7.91C1.62 7.77 1.58 7.63 1.55 7.49C1.53 7.35 1.5 7.2 1.49 7.06C1.48 6.92 1.47 6.77 1.47 6.63L1.47 0L2.94 0ZM0 12.52L11.78 12.52L11.78 14L0 14L0 12.52Z" fill="#474747" fill-opacity="1.000000" fill-rule="nonzero"/>
</svg>
