<svg width="14.000000" height="14.000000" viewBox="0 0 14 14" fill="none" xmlns="http://www.w3.org/2000/svg" xmlns:xlink="http://www.w3.org/1999/xlink">
	<desc>
			Created with Pixso.
	</desc>
	<defs/>
	<path id="path" d="M7 14C3.15 14 0 10.85 0 7C0 3.14 3.15 0 7 0C10.84 0 14 3.14 14 7C14 10.85 10.84 14 7 14ZM7 0.87C3.63 0.87 0.87 3.63 0.87 7C0.87 10.36 3.63 13.12 7 13.12C10.36 13.12 13.12 10.36 13.12 7C13.12 3.63 10.36 0.87 7 0.87ZM10.67 6.64C9.84 6.56 9.05 6.34 8.35 5.94C7.61 6.3 6.78 6.56 5.99 6.73L5.59 6.03C6.29 5.9 7 5.68 7.65 5.42C7.21 5.03 6.86 4.55 6.69 3.98L6.12 3.98L6.12 3.28L10.28 3.28L10.28 3.98C10.01 4.59 9.62 5.11 9.09 5.51C9.71 5.73 10.32 5.9 10.93 5.94L10.67 6.64ZM9.4 4.02L7.43 4.02C7.65 4.46 7.96 4.81 8.35 5.07C8.75 4.81 9.14 4.46 9.4 4.02ZM3.63 3.63L4.2 3.06C4.72 3.45 5.16 3.85 5.59 4.33L5.03 4.89C4.63 4.41 4.15 3.98 3.63 3.63ZM4.98 9.05C5.2 8.83 5.42 8.57 5.68 8.31L5.9 9.18C5.42 9.71 4.9 10.23 4.33 10.67L4.02 9.93C4.15 9.8 4.24 9.62 4.24 9.44L4.24 6.34L3.06 6.34L3.06 5.55L4.98 5.55L4.98 9.05ZM7.91 7.91L6.38 7.91L6.38 7.17L7.91 7.17L7.91 6.47L8.7 6.47L8.7 7.17L10.36 7.17L10.36 7.91L8.7 7.91L8.7 8.75L10.76 8.75L10.76 9.53L8.7 9.53L8.7 10.93L7.91 10.93L7.91 9.53L6.03 9.53L6.03 8.75L7.91 8.75L7.91 7.91Z" fill="#1C1C1E" fill-opacity="1.000000" fill-rule="nonzero"/>
</svg>
