<svg width="12.000000" height="12.000000" viewBox="0 0 12 12" fill="none" xmlns="http://www.w3.org/2000/svg" xmlns:xlink="http://www.w3.org/1999/xlink">
	<desc>
			Created with Pixso.
	</desc>
	<defs/>
	<path id="减去顶层" d="M6 0C2.68652 0 0 2.68628 0 6C0 9.31372 2.68652 12 6 12C9.31348 12 12 9.31372 12 6C12 2.68628 9.31348 0 6 0ZM6 1C3.23828 1 1 3.23853 1 6C1 8.76147 3.23828 11 6 11C8.76172 11 11 8.76147 11 6C11 3.23853 8.76172 1 6 1Z" clip-rule="evenodd" fill="#1C1C1E" fill-opacity="1.000000" fill-rule="evenodd"/>
	<path id="箭头 5" d="M6.59 7.71L8.53 5.7C8.72 5.5 9.03 5.49 9.23 5.68C9.44 5.88 9.44 6.19 9.25 6.39L6.48 9.28C6.29 9.48 5.98 9.49 5.77 9.29L2.89 6.53C2.68 6.33 2.68 6.02 2.87 5.82C3.06 5.62 3.38 5.61 3.58 5.8L5.59 7.74L5.5 3.07L6.5 3.05L6.59 7.71Z" fill="#1C1C1E" fill-opacity="1.000000" fill-rule="evenodd"/>
</svg>
