<svg width="14.000000" height="13.012451" viewBox="0 0 14 13.0125" fill="none" xmlns="http://www.w3.org/2000/svg" xmlns:xlink="http://www.w3.org/1999/xlink">
	<desc>
			Created with Pixso.
	</desc>
	<defs/>
	<path id="path" d="M11.19 2.03C11.14 1.98 11.08 1.93 11.01 1.88C10.94 1.84 10.87 1.8 10.8 1.77C10.73 1.74 10.65 1.71 10.57 1.7C10.49 1.68 10.41 1.67 10.33 1.67C10.25 1.67 10.17 1.67 10.1 1.69C10.02 1.7 9.94 1.72 9.87 1.75C9.79 1.78 9.72 1.81 9.65 1.85C9.58 1.89 9.52 1.94 9.46 1.99L1.74 8.92C1.56 9.09 1.45 9.32 1.45 9.56L1.45 12.52L4.47 12.52C4.69 12.52 4.9 12.44 5.06 12.3L12.74 5.4C12.99 5.17 13.14 4.85 13.15 4.51C13.15 4.42 13.14 4.34 13.13 4.26C13.11 4.18 13.09 4.09 13.06 4.02C13.03 3.94 12.99 3.86 12.94 3.79C12.89 3.72 12.84 3.66 12.78 3.6L11.19 2.03ZM12.16 4.43L5.43 10.64L3.46 8.7L10.19 2.48L12.16 4.43ZM12.13 8.88L12.54 10.15L13.78 10.55C13.82 10.56 13.84 10.57 13.87 10.59C13.9 10.61 13.92 10.63 13.94 10.66C13.96 10.68 13.97 10.71 13.98 10.74C13.99 10.77 14 10.81 14 10.84C14 10.87 13.99 10.9 13.98 10.93C13.97 10.96 13.96 10.99 13.94 11.02C13.92 11.04 13.9 11.06 13.87 11.08C13.84 11.1 13.82 11.11 13.78 11.12L12.54 11.53L12.13 12.8C12.04 13.08 11.63 13.08 11.54 12.8L11.13 11.53L9.89 11.12C9.86 11.11 9.83 11.1 9.81 11.08C9.78 11.06 9.76 11.04 9.74 11.02C9.72 10.99 9.71 10.96 9.7 10.93C9.69 10.9 9.68 10.87 9.68 10.84C9.68 10.81 9.69 10.77 9.7 10.74C9.71 10.71 9.72 10.68 9.74 10.66C9.76 10.63 9.78 10.61 9.81 10.59C9.83 10.57 9.86 10.56 9.89 10.55L11.13 10.15L11.54 8.88C11.63 8.6 12.04 8.6 12.13 8.88ZM2.73 9.36L2.74 9.37L4.7 11.3L4.42 11.54L2.45 11.54L2.45 9.61L2.73 9.36ZM1.37 4.54C1.45 4.54 1.53 4.59 1.55 4.67L1.82 5.48L2.61 5.74C2.62 5.74 2.64 5.75 2.66 5.76C2.68 5.78 2.69 5.79 2.7 5.81C2.71 5.82 2.72 5.84 2.73 5.86C2.74 5.88 2.74 5.9 2.74 5.92C2.74 5.94 2.74 5.96 2.73 5.98C2.72 6 2.71 6.02 2.7 6.03C2.69 6.05 2.68 6.06 2.66 6.08C2.64 6.09 2.62 6.1 2.61 6.1L1.82 6.36L1.55 7.17C1.54 7.21 1.52 7.24 1.48 7.26C1.45 7.29 1.41 7.3 1.37 7.3C1.35 7.3 1.33 7.3 1.31 7.29C1.29 7.29 1.27 7.28 1.25 7.26C1.24 7.25 1.22 7.24 1.21 7.22C1.2 7.2 1.19 7.19 1.18 7.17L0.92 6.36L0.13 6.1C0.09 6.09 0.06 6.07 0.03 6.03C0.01 6 0 5.96 0 5.92C0 5.84 0.05 5.76 0.13 5.74L0.92 5.48L1.18 4.67C1.19 4.65 1.2 4.64 1.21 4.62C1.22 4.6 1.24 4.59 1.25 4.58C1.27 4.56 1.29 4.56 1.31 4.55C1.33 4.54 1.35 4.54 1.37 4.54ZM5.7 0C5.81 0 5.91 0.06 5.94 0.17L6.27 1.2L7.28 1.52C7.3 1.53 7.33 1.54 7.35 1.56C7.37 1.57 7.39 1.59 7.4 1.61C7.42 1.63 7.43 1.65 7.44 1.68C7.45 1.7 7.45 1.73 7.45 1.75C7.45 1.86 7.38 1.95 7.28 1.99L6.27 2.31L5.94 3.34C5.93 3.37 5.92 3.39 5.91 3.41C5.89 3.43 5.87 3.45 5.85 3.47C5.83 3.48 5.81 3.49 5.78 3.5C5.75 3.51 5.73 3.51 5.7 3.51C5.68 3.51 5.65 3.51 5.62 3.5C5.6 3.49 5.58 3.48 5.56 3.47C5.53 3.45 5.52 3.43 5.5 3.41C5.48 3.39 5.47 3.37 5.46 3.34L5.13 2.31L4.13 1.99C4.1 1.98 4.08 1.97 4.06 1.95C4.04 1.94 4.02 1.92 4 1.9C3.99 1.88 3.98 1.85 3.97 1.83C3.96 1.81 3.95 1.78 3.95 1.75C3.95 1.65 4.02 1.55 4.13 1.52L5.13 1.2L5.46 0.17C5.47 0.14 5.48 0.12 5.5 0.1C5.52 0.08 5.53 0.06 5.56 0.04C5.58 0.03 5.6 0.01 5.62 0.01C5.65 0 5.68 -0.01 5.7 0Z" fill="#1C1C1E" fill-opacity="1.000000" fill-rule="nonzero"/>
</svg>
