<svg width="14.000000" height="14.000000" viewBox="0 0 14 14" fill="none" xmlns="http://www.w3.org/2000/svg" xmlns:xlink="http://www.w3.org/1999/xlink">
	<desc>
			Created with Pixso.
	</desc>
	<defs/>
	<path id="矢量 125" d="M2.56 0L12.87 0C12.91 0 12.94 0 12.98 0C13.02 0 13.05 0.01 13.09 0.02C13.12 0.02 13.16 0.03 13.2 0.04C13.23 0.05 13.27 0.07 13.3 0.08C13.33 0.09 13.37 0.11 13.4 0.13C13.43 0.15 13.46 0.16 13.5 0.18C13.53 0.21 13.55 0.23 13.58 0.25C13.61 0.27 13.64 0.3 13.66 0.33C13.69 0.35 13.72 0.38 13.74 0.41C13.76 0.44 13.79 0.46 13.81 0.5C13.83 0.53 13.84 0.56 13.86 0.59C13.88 0.62 13.9 0.66 13.91 0.69C13.92 0.72 13.94 0.76 13.95 0.79C13.96 0.83 13.97 0.87 13.97 0.9C13.98 0.94 13.99 0.97 13.99 1.01C13.99 1.05 14 1.08 14 1.12L14 11.43C14 11.47 13.99 11.51 13.98 11.54C13.98 11.58 13.97 11.62 13.95 11.65Q13.94 11.68 13.92 11.72Q13.91 11.73 13.9 11.75C13.88 11.78 13.86 11.81 13.83 11.83C13.8 11.86 13.78 11.88 13.75 11.9C13.71 11.92 13.68 11.94 13.65 11.96C13.61 11.97 13.58 11.98 13.54 11.99C13.51 11.99 13.47 12 13.43 12C13.4 12 13.36 11.99 13.32 11.99C13.29 11.98 13.25 11.97 13.22 11.96C13.18 11.94 13.15 11.92 13.12 11.9C13.09 11.88 13.06 11.86 13.03 11.83C13.01 11.81 12.98 11.78 12.96 11.75C12.94 11.72 12.93 11.68 12.91 11.65C12.9 11.62 12.89 11.58 12.88 11.54C12.87 11.51 12.87 11.47 12.87 11.43L12.87 1.12L2.56 1.12C2.52 1.12 2.48 1.12 2.45 1.11C2.41 1.1 2.37 1.09 2.34 1.08C2.31 1.06 2.27 1.05 2.24 1.03C2.21 1.01 2.18 0.98 2.16 0.96C2.13 0.93 2.11 0.9 2.09 0.87C2.07 0.84 2.05 0.81 2.04 0.77Q2.02 0.74 2.01 0.7Q2.01 0.68 2 0.67C2 0.63 1.99 0.6 1.99 0.56C1.99 0.52 2 0.48 2 0.45C2.01 0.41 2.02 0.38 2.04 0.34C2.05 0.31 2.07 0.28 2.09 0.25C2.11 0.21 2.13 0.19 2.16 0.16C2.18 0.13 2.21 0.11 2.24 0.09C2.27 0.07 2.31 0.05 2.34 0.04Q2.37 0.03 2.4 0.02Q2.42 0.01 2.45 0.01C2.48 0 2.52 0 2.56 0ZM1.12 2L10.87 2C10.91 2 10.94 2 10.98 2C11.02 2 11.05 2.01 11.09 2.02C11.12 2.02 11.16 2.03 11.2 2.04C11.23 2.05 11.27 2.07 11.3 2.08C11.33 2.09 11.37 2.11 11.4 2.13C11.43 2.15 11.46 2.16 11.49 2.18C11.53 2.21 11.55 2.23 11.58 2.25C11.61 2.27 11.64 2.3 11.66 2.33C11.69 2.35 11.72 2.38 11.74 2.41C11.76 2.44 11.79 2.46 11.81 2.5C11.83 2.53 11.84 2.56 11.86 2.59C11.88 2.62 11.9 2.66 11.91 2.69C11.92 2.72 11.94 2.76 11.95 2.79C11.96 2.83 11.97 2.87 11.97 2.9C11.98 2.94 11.99 2.97 11.99 3.01Q12 3.07 12 3.12L12 12.87Q12 12.92 11.99 12.98C11.99 13.02 11.98 13.05 11.97 13.09C11.97 13.12 11.96 13.16 11.95 13.2C11.94 13.23 11.92 13.27 11.91 13.3C11.9 13.33 11.88 13.37 11.86 13.4C11.84 13.43 11.83 13.46 11.81 13.49C11.79 13.53 11.76 13.55 11.74 13.58C11.72 13.61 11.69 13.64 11.66 13.66C11.64 13.69 11.61 13.72 11.58 13.74C11.55 13.76 11.53 13.78 11.49 13.81C11.46 13.83 11.43 13.84 11.4 13.86C11.37 13.88 11.33 13.9 11.3 13.91C11.27 13.92 11.23 13.94 11.2 13.95C11.16 13.96 11.12 13.97 11.09 13.97C11.05 13.98 11.02 13.99 10.98 13.99C10.94 13.99 10.91 14 10.87 14L1.12 14C1.08 14 1.05 13.99 1.01 13.99C0.97 13.99 0.94 13.98 0.9 13.97C0.87 13.97 0.83 13.96 0.79 13.95C0.76 13.94 0.72 13.92 0.69 13.91C0.66 13.9 0.62 13.88 0.59 13.86C0.56 13.84 0.53 13.83 0.5 13.81C0.46 13.78 0.44 13.76 0.41 13.74C0.38 13.72 0.35 13.69 0.33 13.66C0.3 13.64 0.27 13.61 0.25 13.58C0.23 13.55 0.2 13.53 0.18 13.49C0.16 13.46 0.15 13.43 0.13 13.4C0.11 13.37 0.09 13.33 0.08 13.3C0.07 13.27 0.05 13.23 0.04 13.2C0.03 13.16 0.02 13.12 0.02 13.09C0.01 13.05 0 13.02 0 12.98Q0 12.92 0 12.87L0 3.12Q0 3.07 0 3.01C0 2.97 0.01 2.94 0.02 2.9C0.02 2.87 0.03 2.83 0.04 2.79C0.05 2.76 0.07 2.72 0.08 2.69C0.09 2.66 0.11 2.62 0.13 2.59C0.15 2.56 0.16 2.53 0.18 2.5C0.2 2.46 0.23 2.44 0.25 2.41C0.27 2.38 0.3 2.35 0.33 2.33C0.35 2.3 0.38 2.27 0.41 2.25C0.44 2.23 0.46 2.21 0.5 2.18C0.53 2.16 0.56 2.15 0.59 2.13C0.62 2.11 0.66 2.09 0.69 2.08C0.72 2.07 0.76 2.05 0.79 2.04C0.83 2.03 0.87 2.02 0.9 2.02C0.94 2.01 0.97 2 1.01 2C1.05 2 1.08 2 1.12 2ZM3.05 8.56L8.93 8.56C8.97 8.56 9 8.55 9.04 8.54C9.07 8.54 9.11 8.53 9.14 8.51C9.18 8.5 9.21 8.48 9.24 8.46C9.27 8.44 9.3 8.42 9.33 8.39C9.35 8.36 9.38 8.34 9.4 8.3Q9.41 8.29 9.42 8.27Q9.43 8.24 9.45 8.21C9.46 8.17 9.47 8.14 9.48 8.1C9.49 8.07 9.49 8.03 9.49 7.99C9.49 7.95 9.49 7.92 9.48 7.88C9.47 7.85 9.46 7.81 9.45 7.78Q9.43 7.74 9.42 7.71Q9.41 7.69 9.4 7.68C9.38 7.65 9.35 7.62 9.33 7.59C9.3 7.57 9.27 7.54 9.24 7.52C9.21 7.5 9.18 7.49 9.14 7.47Q9.11 7.46 9.08 7.45Q9.06 7.44 9.04 7.44C9 7.43 8.97 7.43 8.93 7.43L3.05 7.43C3.02 7.43 2.98 7.43 2.95 7.44Q2.92 7.44 2.9 7.45Q2.87 7.46 2.84 7.47C2.81 7.49 2.77 7.5 2.74 7.52C2.71 7.54 2.68 7.57 2.66 7.59C2.63 7.62 2.61 7.65 2.59 7.68Q2.58 7.69 2.57 7.71Q2.55 7.74 2.53 7.78C2.52 7.81 2.51 7.85 2.5 7.88C2.5 7.92 2.49 7.95 2.49 7.99C2.49 8.03 2.5 8.07 2.5 8.1C2.51 8.14 2.52 8.17 2.53 8.21Q2.55 8.24 2.57 8.27Q2.58 8.29 2.59 8.3C2.61 8.34 2.63 8.36 2.66 8.39C2.68 8.42 2.71 8.44 2.74 8.46C2.77 8.48 2.81 8.5 2.84 8.51C2.87 8.53 2.91 8.54 2.95 8.54C2.98 8.55 3.02 8.56 3.05 8.56Z" fill="#474747" fill-opacity="1.000000" fill-rule="evenodd"/>
</svg>
