<svg width="12.000000" height="12.000000" viewBox="0 0 12 12" fill="none" xmlns="http://www.w3.org/2000/svg" xmlns:xlink="http://www.w3.org/1999/xlink">
	<path d="M6 0C2.68652 0 0 2.68628 0 6C0 9.31372 2.68652 12 6 12C9.31348 12 12 9.31372 12 6C12 2.68628 9.31348 0 6 0ZM6 1C3.23828 1 1 3.23853 1 6C1 8.76147 3.23828 11 6 11C8.76172 11 11 8.76147 11 6C11 3.23853 8.76172 1 6 1Z" clip-rule="evenodd" fill="#1C1C1E" fill-opacity="1.000000" fill-rule="evenodd"/>
	<path d="M8.12 4.34C7.92 4.14 7.6 4.14 7.41 4.34L6 5.75L4.58 4.34C4.39 4.14 4.07 4.14 3.87 4.34C3.68 4.53 3.68 4.85 3.87 5.04L5.29 6.46L3.87 7.87C3.68 8.07 3.68 8.38 3.87 8.58C4.07 8.77 4.39 8.77 4.58 8.58L6 7.16L7.41 8.58C7.6 8.77 7.92 8.77 8.12 8.58C8.31 8.38 8.31 8.07 8.12 7.87L6.7 6.46L8.12 5.04C8.31 4.85 8.31 4.53 8.12 4.34Z" fill="#1C1C1E" fill-opacity="1.000000" fill-rule="evenodd"/>
</svg>
