<svg width="9.692383" height="14.000000" viewBox="0 0 9.69238 14" fill="none" xmlns="http://www.w3.org/2000/svg" xmlns:xlink="http://www.w3.org/1999/xlink">
	<desc>
			Created with Pixso.
	</desc>
	<defs/>
	<path id="path" d="M9.15 0L4.3 0C4.27 0 4.23 0 4.2 0.01C4.16 0.01 4.13 0.02 4.1 0.04C4.06 0.05 4.03 0.07 4 0.09C3.97 0.11 3.95 0.13 3.92 0.15C3.9 0.18 3.87 0.2 3.86 0.23C3.84 0.26 3.82 0.29 3.81 0.33C3.79 0.36 3.78 0.39 3.77 0.43C3.77 0.46 3.76 0.5 3.76 0.53C3.76 0.57 3.77 0.6 3.77 0.64C3.78 0.67 3.79 0.71 3.81 0.74C3.82 0.77 3.84 0.8 3.86 0.83C3.87 0.86 3.9 0.89 3.92 0.91C3.95 0.94 3.97 0.96 4 0.98C4.03 1 4.06 1.02 4.1 1.03C4.13 1.04 4.16 1.05 4.2 1.06C4.23 1.07 4.27 1.07 4.3 1.07L5.92 1.07L2.05 12.92L0.53 12.92C0.5 12.92 0.46 12.92 0.43 12.93C0.39 12.94 0.36 12.95 0.33 12.96C0.29 12.97 0.26 12.99 0.23 13.01C0.2 13.03 0.18 13.05 0.15 13.08C0.13 13.1 0.11 13.13 0.09 13.16C0.07 13.19 0.05 13.22 0.04 13.25C0.02 13.28 0.01 13.32 0.01 13.35C0 13.39 0 13.42 0 13.46C0 13.49 0 13.53 0.01 13.56C0.01 13.6 0.02 13.63 0.04 13.66C0.05 13.7 0.07 13.73 0.09 13.76C0.11 13.79 0.13 13.81 0.15 13.84C0.18 13.86 0.2 13.88 0.23 13.9C0.26 13.92 0.29 13.94 0.33 13.95C0.36 13.97 0.39 13.98 0.43 13.98C0.46 13.99 0.5 14 0.53 14L5.38 14C5.41 14 5.45 13.99 5.48 13.98C5.52 13.98 5.55 13.97 5.59 13.95C5.62 13.94 5.65 13.92 5.68 13.9C5.71 13.88 5.74 13.86 5.76 13.84C5.79 13.81 5.81 13.79 5.83 13.76C5.85 13.73 5.86 13.7 5.88 13.66C5.89 13.63 5.9 13.6 5.91 13.56C5.91 13.53 5.92 13.49 5.92 13.46C5.92 13.42 5.91 13.39 5.91 13.35C5.9 13.32 5.89 13.28 5.88 13.25C5.86 13.22 5.85 13.19 5.83 13.16C5.81 13.13 5.79 13.1 5.76 13.08C5.74 13.05 5.71 13.03 5.68 13.01C5.65 12.99 5.62 12.97 5.59 12.96C5.55 12.95 5.52 12.94 5.48 12.93C5.45 12.92 5.41 12.92 5.38 12.92L3.8 12.92L7.68 1.07L9.15 1.07C9.18 1.07 9.22 1.07 9.25 1.06C9.29 1.05 9.32 1.04 9.36 1.03C9.39 1.02 9.42 1 9.45 0.98C9.48 0.96 9.5 0.94 9.53 0.91C9.55 0.89 9.58 0.86 9.6 0.83C9.62 0.8 9.63 0.77 9.65 0.74C9.66 0.71 9.67 0.67 9.68 0.64C9.68 0.6 9.69 0.57 9.69 0.53C9.69 0.5 9.68 0.46 9.68 0.43C9.67 0.39 9.66 0.36 9.65 0.33C9.63 0.29 9.62 0.26 9.6 0.23C9.58 0.2 9.55 0.18 9.53 0.15C9.5 0.13 9.48 0.11 9.45 0.09C9.42 0.07 9.39 0.05 9.36 0.04C9.32 0.02 9.29 0.01 9.25 0.01C9.22 0 9.18 0 9.15 0Z" fill="#474747" fill-opacity="1.000000" fill-rule="nonzero"/>
</svg>
