<svg width="14.119141" height="13.118652" viewBox="0 0 14.1191 13.1187" fill="none" xmlns="http://www.w3.org/2000/svg" xmlns:xlink="http://www.w3.org/1999/xlink">
	<path d="M2.05 1.76L2.59 0.32C2.75 -0.11 3.36 -0.11 3.52 0.32L4.06 1.76C4.11 1.9 4.21 2 4.35 2.05L5.79 2.59C6.22 2.75 6.22 3.36 5.79 3.52L4.35 4.06C4.21 4.11 4.11 4.21 4.06 4.35L3.52 5.79C3.36 6.22 2.75 6.22 2.59 5.79L2.05 4.35C2 4.21 1.9 4.11 1.76 4.06L0.32 3.52C-0.11 3.36 -0.11 2.75 0.32 2.59L1.76 2.05C1.9 2 2 1.9 2.05 1.76ZM7.51 6.22L8.59 3.32C8.75 2.89 9.36 2.89 9.52 3.32L10.6 6.22C10.65 6.35 10.75 6.46 10.89 6.51L13.79 7.59C14.22 7.75 14.22 8.36 13.79 8.52L10.89 9.6C10.75 9.65 10.65 9.75 10.6 9.89L9.52 12.79C9.36 13.22 8.75 13.22 8.59 12.79L7.51 9.89C7.46 9.75 7.36 9.65 7.22 9.6L4.32 8.52C3.89 8.36 3.89 7.75 4.32 7.59L7.22 6.51C7.36 6.46 7.46 6.35 7.51 6.22Z" fill="#474747" fill-opacity="1.000000" fill-rule="evenodd"/>
</svg>
