<svg width="10.545898" height="13.590820" viewBox="0 0 10.5459 13.5908" fill="none" xmlns="http://www.w3.org/2000/svg" xmlns:xlink="http://www.w3.org/1999/xlink">
	<defs>
		<linearGradient x1="0.000003" y1="0.000001" x2="11.559570" y2="12.059329" id="paint_linear_163_154_0" gradientUnits="userSpaceOnUse">
			<stop stop-color="#2A5ACE"/>
			<stop offset="1.000000" stop-color="#6167DB"/>
		</linearGradient>
	</defs>
	<path id="path" d="M8.9 7.34C9.87 7.97 10.36 8.85 10.36 9.98C10.36 11.09 9.88 11.99 8.95 12.65C8.05 13.27 6.86 13.59 5.38 13.59C3.88 13.59 2.68 13.24 1.82 12.56C0.83 11.77 0.29 10.58 0.18 9.01L1.27 9.01C1.4 10.23 1.82 11.15 2.56 11.75C3.22 12.29 4.15 12.56 5.36 12.56C6.51 12.56 7.45 12.32 8.16 11.88C8.86 11.42 9.22 10.8 9.22 10.03C9.22 9.13 8.77 8.44 7.89 7.94C7.6 7.78 7.1 7.57 6.37 7.34L0.54 7.34C0.5 7.34 0.47 7.33 0.43 7.33C0.4 7.32 0.37 7.31 0.33 7.29C0.3 7.28 0.27 7.26 0.24 7.24C0.21 7.22 0.18 7.2 0.16 7.18C0.13 7.15 0.11 7.12 0.09 7.09C0.07 7.06 0.05 7.03 0.04 7C0.02 6.97 0.01 6.93 0.01 6.9C0 6.86 0 6.83 0 6.79C0 6.75 0 6.72 0.01 6.68C0.01 6.65 0.02 6.61 0.04 6.58C0.05 6.55 0.07 6.52 0.09 6.49C0.11 6.46 0.13 6.43 0.16 6.4C0.18 6.38 0.21 6.36 0.24 6.34C0.27 6.32 0.3 6.3 0.33 6.29C0.37 6.27 0.4 6.26 0.43 6.26C0.47 6.25 0.5 6.24 0.54 6.24L2.81 6.24C2.45 6.11 2.18 6 2.01 5.89C1 5.33 0.5 4.5 0.5 3.44C0.5 2.3 0.96 1.44 1.92 0.84C2.76 0.27 3.86 0 5.18 0C6.6 0 7.74 0.34 8.58 1.04C9.44 1.73 9.94 2.76 10.05 4.12L8.93 4.12C8.78 3.09 8.4 2.32 7.78 1.79C7.15 1.26 6.27 1 5.14 1C4.08 1 3.25 1.19 2.65 1.55C1.95 1.96 1.62 2.58 1.62 3.4C1.62 4.13 2.03 4.7 2.85 5.14C3.23 5.33 4.08 5.62 5.36 5.98C5.67 6.07 5.96 6.16 6.24 6.24L10 6.24C10.03 6.24 10.07 6.25 10.1 6.26C10.14 6.26 10.17 6.27 10.2 6.29C10.24 6.3 10.27 6.32 10.3 6.34C10.33 6.36 10.36 6.38 10.38 6.4C10.41 6.43 10.43 6.46 10.45 6.49C10.47 6.52 10.49 6.55 10.5 6.58C10.51 6.61 10.52 6.65 10.53 6.68C10.54 6.72 10.54 6.75 10.54 6.79C10.54 6.83 10.54 6.86 10.53 6.9C10.52 6.93 10.51 6.97 10.5 7C10.49 7.03 10.47 7.06 10.45 7.09C10.43 7.12 10.41 7.15 10.38 7.18C10.36 7.2 10.33 7.22 10.3 7.24C10.27 7.26 10.24 7.28 10.2 7.29C10.17 7.31 10.14 7.32 10.1 7.33C10.07 7.33 10.03 7.34 10 7.34L8.9 7.34Z" fill="url(#paint_linear_163_154_0)" fill-opacity="1.000000" fill-rule="nonzero"/>
</svg>
