<svg width="12.858398" height="12.858154" viewBox="0 0 12.8584 12.8582" fill="none" xmlns="http://www.w3.org/2000/svg" xmlns:xlink="http://www.w3.org/1999/xlink">
	<desc>
			Created with Pixso.
	</desc>
	<defs/>
	<path id="path" d="M3.2 4.81C3.2 4.87 3.21 4.92 3.22 4.97C3.23 5.02 3.25 5.07 3.27 5.12C3.29 5.17 3.31 5.22 3.34 5.26C3.37 5.31 3.4 5.35 3.44 5.38C3.48 5.42 3.52 5.46 3.56 5.48C3.61 5.51 3.65 5.54 3.7 5.56C3.75 5.58 3.8 5.59 3.85 5.6C3.9 5.62 3.96 5.62 4.01 5.62C4.06 5.62 4.12 5.62 4.17 5.6C4.22 5.59 4.27 5.58 4.32 5.56C4.37 5.54 4.41 5.51 4.46 5.48C4.5 5.46 4.54 5.42 4.58 5.38C4.62 5.35 4.65 5.31 4.68 5.26C4.71 5.22 4.73 5.17 4.75 5.12C4.77 5.07 4.79 5.02 4.8 4.97C4.81 4.92 4.81 4.87 4.81 4.81C4.81 4.76 4.81 4.71 4.8 4.66C4.79 4.61 4.77 4.56 4.75 4.51C4.73 4.46 4.71 4.41 4.68 4.37C4.65 4.32 4.62 4.28 4.58 4.25C4.54 4.21 4.5 4.17 4.46 4.15C4.41 4.12 4.37 4.09 4.32 4.07C4.27 4.05 4.22 4.04 4.17 4.03C4.12 4.02 4.06 4.01 4.01 4.01C3.96 4.01 3.9 4.02 3.85 4.03C3.8 4.04 3.75 4.05 3.7 4.07C3.65 4.09 3.61 4.12 3.56 4.15C3.52 4.17 3.48 4.21 3.44 4.25C3.4 4.28 3.37 4.32 3.34 4.37C3.31 4.41 3.29 4.46 3.27 4.51C3.25 4.56 3.23 4.61 3.22 4.66C3.21 4.71 3.2 4.76 3.2 4.81ZM8.03 4.81C8.03 4.87 8.04 4.92 8.05 4.97C8.06 5.02 8.08 5.07 8.09 5.12C8.12 5.17 8.14 5.22 8.17 5.26C8.2 5.31 8.23 5.35 8.27 5.38C8.31 5.42 8.35 5.45 8.39 5.48C8.44 5.51 8.48 5.54 8.53 5.56C8.58 5.58 8.63 5.59 8.68 5.6C8.73 5.61 8.79 5.62 8.84 5.62C8.89 5.62 8.94 5.61 9 5.6C9.05 5.59 9.1 5.58 9.15 5.56C9.2 5.54 9.24 5.51 9.29 5.48C9.33 5.45 9.37 5.42 9.41 5.38C9.45 5.35 9.48 5.31 9.51 5.26C9.54 5.22 9.56 5.17 9.58 5.12C9.6 5.07 9.62 5.02 9.63 4.97C9.64 4.92 9.64 4.87 9.64 4.81C9.64 4.76 9.64 4.71 9.63 4.66C9.62 4.61 9.6 4.56 9.58 4.51C9.56 4.46 9.54 4.41 9.51 4.37C9.48 4.32 9.45 4.28 9.41 4.25C9.37 4.21 9.33 4.17 9.29 4.15C9.24 4.12 9.2 4.09 9.15 4.07C9.1 4.05 9.05 4.04 9 4.03C8.94 4.01 8.89 4.01 8.84 4.01C8.79 4.01 8.73 4.01 8.68 4.03C8.63 4.04 8.58 4.05 8.53 4.07C8.48 4.09 8.44 4.12 8.39 4.15C8.35 4.17 8.31 4.21 8.27 4.25C8.23 4.28 8.2 4.32 8.17 4.37C8.14 4.41 8.12 4.46 8.09 4.51C8.08 4.56 8.06 4.61 8.05 4.66C8.04 4.71 8.03 4.76 8.03 4.81ZM6.42 10.05C5.3 10.05 4.17 9.48 3.53 8.6C3.28 8.28 3.12 7.87 2.96 7.55C2.88 7.31 3.04 7.07 3.2 6.99C3.45 6.91 3.61 7.07 3.69 7.23C3.77 7.55 3.93 7.79 4.09 8.03C4.73 8.84 5.54 9.24 6.42 9.24C7.31 9.24 8.19 8.84 8.68 8.12C8.84 7.87 9 7.55 9.08 7.31C9.16 7.07 9.4 6.99 9.56 7.07C9.8 7.15 9.88 7.39 9.8 7.55C9.72 7.95 9.48 8.28 9.24 8.6C8.68 9.48 7.55 10.05 6.42 10.05ZM6.42 12.85C2.91 12.85 0 9.94 0 6.42C0 2.91 2.91 0 6.42 0C9.94 0 12.85 2.91 12.85 6.42C12.85 9.94 9.94 12.85 6.42 12.85ZM6.42 0.85C6.33 0.85 6.24 0.86 6.15 0.86C6.06 0.86 5.97 0.87 5.88 0.88C5.79 0.89 5.7 0.9 5.61 0.91C5.52 0.93 5.43 0.94 5.34 0.96C5.25 0.98 5.16 1 5.07 1.02C4.98 1.04 4.89 1.06 4.81 1.09C4.72 1.12 4.63 1.15 4.55 1.18C4.46 1.21 4.37 1.24 4.29 1.27C4.21 1.31 4.12 1.35 4.04 1.38C3.96 1.42 3.88 1.46 3.8 1.51C3.72 1.55 3.64 1.6 3.56 1.64C3.48 1.69 3.4 1.74 3.33 1.79C3.25 1.84 3.18 1.89 3.1 1.95C3.03 2 2.96 2.06 2.89 2.11C2.82 2.17 2.75 2.23 2.68 2.29C2.61 2.35 2.55 2.42 2.48 2.48C2.42 2.55 2.35 2.61 2.29 2.68C2.23 2.75 2.17 2.82 2.11 2.89C2.06 2.96 2 3.03 1.95 3.1C1.89 3.18 1.84 3.25 1.79 3.33C1.74 3.4 1.69 3.48 1.64 3.56C1.6 3.64 1.55 3.72 1.51 3.8C1.46 3.88 1.42 3.96 1.38 4.04C1.35 4.12 1.31 4.21 1.27 4.29C1.24 4.37 1.21 4.46 1.18 4.55C1.15 4.63 1.12 4.72 1.09 4.81C1.06 4.89 1.04 4.98 1.02 5.07C1 5.16 0.98 5.25 0.96 5.34C0.94 5.43 0.93 5.52 0.91 5.61C0.9 5.7 0.89 5.79 0.88 5.88C0.87 5.97 0.86 6.06 0.86 6.15C0.86 6.24 0.85 6.33 0.85 6.42C0.85 6.52 0.86 6.61 0.86 6.7C0.86 6.79 0.87 6.88 0.88 6.97C0.89 7.06 0.9 7.15 0.91 7.24C0.93 7.33 0.94 7.42 0.96 7.51C0.98 7.6 1 7.69 1.02 7.78C1.04 7.87 1.06 7.96 1.09 8.04C1.12 8.13 1.15 8.22 1.18 8.3C1.21 8.39 1.24 8.47 1.27 8.56C1.31 8.64 1.35 8.73 1.38 8.81C1.42 8.89 1.46 8.97 1.51 9.05C1.55 9.13 1.6 9.21 1.64 9.29C1.69 9.37 1.74 9.45 1.79 9.52C1.84 9.6 1.89 9.67 1.95 9.75C2 9.82 2.06 9.89 2.11 9.96C2.17 10.03 2.23 10.1 2.29 10.17C2.35 10.24 2.42 10.3 2.48 10.37C2.55 10.43 2.61 10.49 2.68 10.56C2.75 10.62 2.82 10.68 2.89 10.73C2.96 10.79 3.03 10.85 3.1 10.9C3.18 10.96 3.25 11.01 3.33 11.06C3.4 11.11 3.48 11.16 3.56 11.21C3.64 11.25 3.72 11.3 3.8 11.34C3.88 11.38 3.96 11.42 4.04 11.46C4.12 11.5 4.21 11.54 4.29 11.57C4.37 11.61 4.46 11.64 4.55 11.67C4.63 11.7 4.72 11.73 4.81 11.76C4.89 11.78 4.98 11.81 5.07 11.83C5.16 11.85 5.25 11.87 5.34 11.89C5.43 11.91 5.52 11.92 5.61 11.94C5.7 11.95 5.79 11.96 5.88 11.97C5.97 11.98 6.06 11.98 6.15 11.99C6.24 11.99 6.33 12 6.42 12C6.52 12 6.61 11.99 6.7 11.99C6.79 11.98 6.88 11.98 6.97 11.97C7.06 11.96 7.15 11.95 7.24 11.94C7.33 11.92 7.42 11.91 7.51 11.89C7.6 11.87 7.69 11.85 7.78 11.83C7.87 11.81 7.95 11.78 8.04 11.76C8.13 11.73 8.22 11.7 8.3 11.67C8.39 11.64 8.47 11.61 8.56 11.57C8.64 11.54 8.73 11.5 8.81 11.46C8.89 11.42 8.97 11.38 9.05 11.34C9.13 11.3 9.21 11.25 9.29 11.21C9.37 11.16 9.45 11.11 9.52 11.06C9.6 11.01 9.67 10.96 9.75 10.9C9.82 10.85 9.89 10.79 9.96 10.73C10.03 10.68 10.1 10.62 10.17 10.56C10.24 10.49 10.3 10.43 10.37 10.37C10.43 10.3 10.49 10.24 10.56 10.17C10.62 10.1 10.68 10.03 10.73 9.96C10.79 9.89 10.85 9.82 10.9 9.75C10.96 9.67 11.01 9.6 11.06 9.52C11.11 9.45 11.16 9.37 11.21 9.29C11.25 9.21 11.3 9.13 11.34 9.05C11.38 8.97 11.42 8.89 11.46 8.81C11.5 8.73 11.54 8.64 11.57 8.56C11.61 8.47 11.64 8.39 11.67 8.3C11.7 8.22 11.73 8.13 11.76 8.04C11.78 7.96 11.81 7.87 11.83 7.78C11.85 7.69 11.87 7.6 11.89 7.51C11.91 7.42 11.92 7.33 11.94 7.24C11.95 7.15 11.96 7.06 11.97 6.97C11.98 6.88 11.98 6.79 11.99 6.7C11.99 6.61 12 6.52 12 6.42C12 6.33 11.99 6.24 11.99 6.15C11.98 6.06 11.98 5.97 11.97 5.88C11.96 5.79 11.95 5.7 11.94 5.61C11.92 5.52 11.91 5.43 11.89 5.34C11.87 5.25 11.85 5.16 11.83 5.07C11.81 4.98 11.78 4.89 11.76 4.81C11.73 4.72 11.7 4.63 11.67 4.55C11.64 4.46 11.61 4.37 11.57 4.29C11.54 4.21 11.5 4.12 11.46 4.04C11.42 3.96 11.38 3.88 11.34 3.8C11.3 3.72 11.25 3.64 11.21 3.56C11.16 3.48 11.11 3.4 11.06 3.33C11.01 3.25 10.96 3.18 10.9 3.1C10.85 3.03 10.79 2.96 10.73 2.89C10.68 2.82 10.62 2.75 10.56 2.68C10.49 2.61 10.43 2.55 10.37 2.48C10.3 2.42 10.24 2.35 10.17 2.29C10.1 2.23 10.03 2.17 9.96 2.11C9.89 2.06 9.82 2 9.75 1.95C9.67 1.89 9.6 1.84 9.52 1.79C9.45 1.74 9.37 1.69 9.29 1.64C9.21 1.6 9.13 1.55 9.05 1.51C8.97 1.46 8.89 1.42 8.81 1.38C8.73 1.35 8.64 1.31 8.56 1.27C8.47 1.24 8.39 1.21 8.3 1.18C8.22 1.15 8.13 1.12 8.04 1.09C7.95 1.06 7.87 1.04 7.78 1.02C7.69 1 7.6 0.98 7.51 0.96C7.42 0.94 7.33 0.93 7.24 0.91C7.15 0.9 7.06 0.89 6.97 0.88C6.88 0.87 6.79 0.86 6.7 0.86C6.61 0.86 6.52 0.85 6.42 0.85Z" fill="#1C1C1E" fill-opacity="1.000000" fill-rule="nonzero"/>
</svg>
