<svg width="12.000000" height="12.000000" viewBox="0 0 12 12" fill="none" xmlns="http://www.w3.org/2000/svg" xmlns:xlink="http://www.w3.org/1999/xlink">
	<desc>
			Created with Pixso.
	</desc>
	<defs/>
	<path id="刷新" d="M6.01 0C2.69 0 0 2.68 0 6C0 9.31 2.69 12 6.01 12C7.96 12 9.7 11.06 10.8 9.62C10.88 9.54 10.93 9.43 10.93 9.31C10.93 9.07 10.74 8.88 10.5 8.88C10.37 8.88 10.27 8.93 10.19 9.01L10.19 9.01C10.18 9.01 10.18 9.01 10.18 9.02C10.16 9.04 10.14 9.07 10.12 9.1C9.18 10.34 7.69 11.14 6.01 11.14C3.16 11.14 0.85 8.84 0.85 6C0.85 3.15 3.16 0.85 6.01 0.85C7.92 0.85 9.59 1.89 10.48 3.43L9.67 3.9L12 5.22L11.98 2.55L11.22 3C10.18 1.2 8.24 0 6.01 0Z" fill="#24252C" fill-opacity="1.000000" fill-rule="evenodd"/>
</svg>
