<svg width="12.200195" height="13.799805" viewBox="0 0 12.2002 13.7998" fill="none" xmlns="http://www.w3.org/2000/svg" xmlns:xlink="http://www.w3.org/1999/xlink">
	<desc>
			Created with Pixso.
	</desc>
	<defs/>
	<path id="矢量 128" d="M3.39 1.59L8.79 1.59L8.79 0.5C8.79 0.46 8.8 0.43 8.8 0.4Q8.81 0.39 8.81 0.38Q8.82 0.34 8.83 0.3C8.84 0.27 8.86 0.24 8.88 0.22C8.9 0.19 8.92 0.16 8.94 0.14C8.96 0.12 8.99 0.1 9.02 0.08C9.04 0.06 9.07 0.05 9.1 0.03C9.13 0.02 9.16 0.01 9.2 0C9.23 0 9.26 0 9.29 0C9.33 0 9.36 0 9.39 0C9.42 0.01 9.45 0.02 9.49 0.03C9.52 0.05 9.54 0.06 9.57 0.08Q9.59 0.09 9.61 0.11Q9.63 0.12 9.65 0.14C9.67 0.16 9.69 0.19 9.71 0.22Q9.73 0.24 9.74 0.27Q9.75 0.29 9.76 0.3C9.77 0.33 9.78 0.37 9.79 0.4C9.79 0.43 9.79 0.46 9.79 0.5L9.79 1.59L10.9 1.59C11.61 1.59 12.2 2.18 12.2 2.89L12.2 12.49C12.2 13.21 11.61 13.79 10.9 13.79L1.29 13.79C1.25 13.79 1.21 13.79 1.17 13.79C1.12 13.78 1.08 13.78 1.04 13.77C1 13.76 0.96 13.75 0.92 13.74C0.88 13.73 0.84 13.71 0.8 13.7C0.76 13.68 0.72 13.66 0.68 13.64C0.64 13.62 0.61 13.6 0.57 13.58C0.54 13.55 0.5 13.53 0.47 13.5C0.44 13.47 0.41 13.44 0.38 13.41C0.35 13.38 0.32 13.35 0.29 13.32C0.26 13.29 0.24 13.25 0.21 13.22C0.19 13.18 0.17 13.15 0.15 13.11C0.13 13.07 0.11 13.03 0.09 12.99C0.08 12.95 0.06 12.91 0.05 12.87C0.04 12.83 0.03 12.79 0.02 12.75C0.01 12.71 0.01 12.66 0 12.62Q0 12.56 0 12.49L0 2.89C0 2.18 0.58 1.59 1.29 1.59L2.39 1.59L2.39 0.5C2.39 0.46 2.4 0.43 2.4 0.4C2.41 0.37 2.42 0.33 2.43 0.3C2.45 0.27 2.46 0.24 2.48 0.22C2.5 0.19 2.52 0.16 2.54 0.14Q2.56 0.12 2.58 0.11Q2.6 0.09 2.62 0.08C2.64 0.06 2.67 0.05 2.7 0.03C2.73 0.02 2.76 0.01 2.8 0C2.83 0 2.86 0 2.89 0C2.93 0 2.96 0 2.99 0C3.02 0.01 3.06 0.02 3.09 0.03C3.12 0.05 3.14 0.06 3.17 0.08Q3.19 0.09 3.21 0.11Q3.23 0.12 3.25 0.14C3.27 0.16 3.29 0.19 3.31 0.22C3.33 0.24 3.34 0.27 3.36 0.3C3.37 0.33 3.38 0.37 3.38 0.4C3.39 0.43 3.39 0.46 3.39 0.5L3.39 1.59ZM9.28 2.59C9.28 2.6 9.29 2.6 9.29 2.6C9.3 2.6 9.3 2.6 9.31 2.59L10.9 2.59Q10.92 2.59 10.95 2.6C10.97 2.6 10.99 2.61 11.01 2.62C11.03 2.63 11.04 2.63 11.06 2.65C11.08 2.66 11.09 2.67 11.11 2.68C11.12 2.7 11.13 2.71 11.14 2.73C11.16 2.74 11.16 2.76 11.17 2.78C11.18 2.8 11.19 2.82 11.19 2.84Q11.19 2.85 11.19 2.86Q11.2 2.88 11.2 2.89L11.2 12.49Q11.2 12.51 11.19 12.53Q11.19 12.54 11.19 12.55Q11.19 12.56 11.19 12.57Q11.18 12.59 11.17 12.61C11.16 12.63 11.16 12.65 11.14 12.66C11.13 12.68 11.12 12.69 11.11 12.71C11.09 12.72 11.08 12.73 11.06 12.74C11.05 12.76 11.03 12.76 11.01 12.77C10.99 12.78 10.97 12.79 10.95 12.79C10.93 12.79 10.91 12.79 10.9 12.79L1.29 12.79C1.13 12.79 1 12.66 1 12.49L1 2.89Q1 2.88 1 2.86Q1 2.85 1 2.84C1 2.82 1.01 2.8 1.02 2.78C1.03 2.76 1.04 2.74 1.05 2.73C1.06 2.71 1.07 2.7 1.08 2.68C1.1 2.67 1.11 2.66 1.13 2.65C1.14 2.63 1.16 2.63 1.18 2.62C1.2 2.61 1.22 2.6 1.24 2.6Q1.27 2.59 1.29 2.59L2.88 2.59C2.88 2.6 2.89 2.6 2.89 2.6C2.9 2.6 2.91 2.6 2.91 2.59L9.28 2.59ZM3.6 5.39C3.63 5.39 3.66 5.39 3.69 5.39L8.49 5.39C8.53 5.39 8.56 5.39 8.59 5.39C8.62 5.38 8.66 5.37 8.69 5.36C8.72 5.34 8.75 5.33 8.77 5.31C8.8 5.29 8.83 5.27 8.85 5.25C8.87 5.23 8.89 5.2 8.91 5.17C8.93 5.15 8.94 5.12 8.96 5.09Q8.96 5.07 8.97 5.05Q8.98 5.02 8.99 4.99C8.99 4.96 8.99 4.93 8.99 4.89Q8.99 4.87 8.99 4.85Q8.99 4.82 8.99 4.8Q8.98 4.77 8.97 4.74Q8.96 4.72 8.96 4.7C8.94 4.67 8.93 4.64 8.91 4.62C8.89 4.59 8.87 4.56 8.85 4.54C8.83 4.52 8.8 4.5 8.77 4.48C8.75 4.46 8.72 4.45 8.69 4.43C8.66 4.42 8.62 4.41 8.59 4.4C8.56 4.4 8.53 4.39 8.49 4.39L3.69 4.39C3.66 4.39 3.63 4.4 3.6 4.4C3.56 4.41 3.53 4.42 3.5 4.43C3.47 4.45 3.44 4.46 3.42 4.48C3.39 4.5 3.36 4.52 3.34 4.54C3.32 4.56 3.3 4.59 3.28 4.62C3.26 4.64 3.25 4.67 3.23 4.7C3.22 4.73 3.21 4.77 3.2 4.8C3.2 4.83 3.19 4.86 3.19 4.89C3.19 4.93 3.2 4.96 3.2 4.99C3.21 5.02 3.22 5.06 3.23 5.09C3.25 5.12 3.26 5.15 3.28 5.17C3.3 5.2 3.32 5.23 3.34 5.25C3.36 5.27 3.39 5.29 3.42 5.31C3.44 5.33 3.47 5.34 3.5 5.36C3.53 5.37 3.56 5.38 3.6 5.39ZM3.6 8.19C3.63 8.19 3.66 8.19 3.69 8.19L8.49 8.19C8.53 8.19 8.56 8.19 8.59 8.19Q8.62 8.18 8.64 8.17Q8.66 8.17 8.69 8.16C8.72 8.14 8.75 8.13 8.77 8.11C8.8 8.09 8.83 8.07 8.85 8.05C8.87 8.03 8.89 8 8.91 7.97C8.93 7.95 8.94 7.92 8.96 7.89Q8.96 7.87 8.97 7.85Q8.98 7.82 8.99 7.79C8.99 7.76 8.99 7.73 8.99 7.69Q8.99 7.67 8.99 7.65Q8.99 7.62 8.99 7.6C8.98 7.57 8.97 7.53 8.96 7.5C8.94 7.47 8.93 7.44 8.91 7.42C8.89 7.39 8.87 7.36 8.85 7.34C8.83 7.32 8.8 7.3 8.77 7.28C8.75 7.26 8.72 7.25 8.69 7.23C8.66 7.22 8.62 7.21 8.59 7.2C8.56 7.2 8.53 7.19 8.49 7.19L3.69 7.19C3.66 7.19 3.63 7.2 3.6 7.2C3.56 7.21 3.53 7.22 3.5 7.23C3.47 7.25 3.44 7.26 3.42 7.28Q3.4 7.29 3.38 7.31Q3.36 7.32 3.34 7.34C3.32 7.36 3.3 7.39 3.28 7.42C3.26 7.44 3.25 7.47 3.23 7.5C3.22 7.53 3.21 7.57 3.2 7.6C3.2 7.63 3.19 7.66 3.19 7.69C3.19 7.73 3.2 7.76 3.2 7.79C3.21 7.82 3.22 7.86 3.23 7.89C3.25 7.92 3.26 7.95 3.28 7.97C3.3 8 3.32 8.03 3.34 8.05Q3.36 8.07 3.38 8.08Q3.4 8.1 3.42 8.11C3.44 8.13 3.47 8.14 3.5 8.16Q3.53 8.17 3.55 8.17Q3.57 8.18 3.6 8.19ZM3.6 10.99C3.63 10.99 3.66 11 3.69 11L8.49 11C8.53 11 8.56 10.99 8.59 10.99C8.62 10.98 8.66 10.97 8.69 10.96C8.72 10.94 8.75 10.93 8.77 10.91C8.8 10.89 8.83 10.87 8.85 10.85C8.87 10.83 8.89 10.8 8.91 10.77C8.93 10.75 8.94 10.72 8.96 10.69Q8.97 10.65 8.98 10.61Q8.98 10.6 8.99 10.59C8.99 10.56 8.99 10.53 8.99 10.5C8.99 10.46 8.99 10.43 8.99 10.4C8.98 10.37 8.97 10.33 8.96 10.3C8.94 10.27 8.93 10.24 8.91 10.22C8.89 10.19 8.87 10.16 8.85 10.14C8.83 10.12 8.8 10.1 8.77 10.08C8.75 10.06 8.72 10.05 8.69 10.03C8.66 10.02 8.62 10.01 8.59 10C8.56 10 8.53 10 8.49 10L3.69 10C3.66 10 3.63 10 3.6 10C3.56 10.01 3.53 10.02 3.5 10.03C3.47 10.05 3.44 10.06 3.42 10.08Q3.4 10.09 3.38 10.11Q3.36 10.12 3.34 10.14C3.32 10.16 3.3 10.19 3.28 10.22C3.26 10.24 3.25 10.27 3.23 10.3C3.22 10.33 3.21 10.37 3.2 10.4C3.2 10.43 3.19 10.46 3.19 10.5C3.19 10.53 3.2 10.56 3.2 10.59C3.21 10.62 3.22 10.66 3.23 10.69C3.25 10.72 3.26 10.75 3.28 10.77C3.3 10.8 3.32 10.83 3.34 10.85Q3.36 10.87 3.38 10.88Q3.4 10.9 3.42 10.91C3.44 10.93 3.47 10.94 3.5 10.96C3.53 10.97 3.56 10.98 3.6 10.99Z" fill="#1C1C1E" fill-opacity="1.000000" fill-rule="evenodd"/>
</svg>
