<svg width="12.000000" height="12.000000" viewBox="0 0 12 12" fill="none" xmlns="http://www.w3.org/2000/svg" xmlns:xlink="http://www.w3.org/1999/xlink">
	<desc>
			Created with Pixso.
	</desc>
	<defs/>
	<path id="减去顶层" d="M6 0C2.68652 0 0 2.68628 0 6C0 9.31372 2.68652 12 6 12C9.31348 12 12 9.31372 12 6C12 2.68628 9.31348 0 6 0ZM6 1C3.23828 1 1 3.23853 1 6C1 8.76147 3.23828 11 6 11C8.76172 11 11 8.76147 11 6C11 3.23853 8.76172 1 6 1Z" clip-rule="evenodd" fill="#FFFFFF" fill-opacity="1.000000" fill-rule="evenodd"/>
	<path id="矢量 129" d="M8.53 4.4C8.34 4.2 8.02 4.2 7.83 4.4L5.61 6.62L4.8 6.15C4.56 6.01 4.26 6.09 4.12 6.33C3.98 6.57 4.06 6.88 4.3 7.02L5.44 7.67C5.68 7.81 5.98 7.73 6.12 7.49L8.53 5.11C8.73 4.91 8.73 4.59 8.53 4.4Z" fill="#FFFFFF" fill-opacity="1.000000" fill-rule="evenodd"/>
</svg>
