<svg width="14.000000" height="10.855225" viewBox="0 0 14 10.8552" fill="none" xmlns="http://www.w3.org/2000/svg" xmlns:xlink="http://www.w3.org/1999/xlink">
	<desc>
			Created with Pixso.
	</desc>
	<defs/>
	<path id="path" d="M8 7.86C8 7.86 8 7.85 8 7.85L8 7.85C8 7.65 8 7.46 8.02 7.27C8.03 7.08 8.05 6.88 8.07 6.69C8.1 6.5 8.13 6.31 8.16 6.12C8.2 5.93 8.25 5.75 8.29 5.56C8.34 5.37 8.4 5.19 8.46 5C8.52 4.82 8.59 4.64 8.66 4.46C8.73 4.28 8.81 4.11 8.89 3.93C8.98 3.76 9.07 3.59 9.16 3.42C9.26 3.25 9.36 3.09 9.46 2.93C9.57 2.76 9.68 2.61 9.8 2.45C9.91 2.3 10.03 2.15 10.16 2C10.28 1.85 10.41 1.71 10.55 1.57C10.68 1.43 10.82 1.3 10.96 1.17C11.11 1.04 11.25 0.92 11.41 0.8C11.56 0.68 11.71 0.56 11.87 0.45C12.03 0.34 12.19 0.24 12.36 0.14C12.41 0.1 12.47 0.08 12.53 0.05C12.6 0.03 12.66 0.02 12.72 0.01C12.79 0 12.85 -0.01 12.92 0C12.99 0 13.05 0.01 13.11 0.02C13.18 0.04 13.24 0.06 13.3 0.09C13.36 0.12 13.41 0.15 13.47 0.19C13.52 0.23 13.57 0.27 13.61 0.32C13.66 0.37 13.7 0.42 13.73 0.48C13.76 0.53 13.79 0.59 13.81 0.66C13.84 0.72 13.85 0.78 13.86 0.85C13.87 0.91 13.88 0.98 13.87 1.04C13.87 1.11 13.86 1.17 13.84 1.24C13.83 1.3 13.81 1.36 13.78 1.42C13.75 1.48 13.72 1.54 13.68 1.59C13.64 1.64 13.6 1.69 13.55 1.73C13.5 1.78 13.45 1.82 13.39 1.85C13.1 2.03 12.82 2.23 12.55 2.45C12.28 2.67 12.04 2.9 11.8 3.16C11.57 3.42 11.36 3.69 11.17 3.97C10.98 4.26 10.81 4.56 10.66 4.87C10.76 4.86 10.86 4.85 10.96 4.85C11.07 4.85 11.16 4.86 11.27 4.87C11.37 4.87 11.46 4.89 11.56 4.91C11.66 4.93 11.76 4.95 11.86 4.98C11.95 5.01 12.05 5.04 12.14 5.08C12.23 5.12 12.32 5.16 12.41 5.21C12.5 5.26 12.59 5.31 12.67 5.36C12.75 5.42 12.83 5.48 12.91 5.54C12.99 5.61 13.06 5.68 13.13 5.75C13.2 5.82 13.27 5.89 13.33 5.97C13.4 6.05 13.46 6.13 13.51 6.22C13.56 6.3 13.62 6.39 13.66 6.48C13.71 6.57 13.75 6.66 13.79 6.75C13.82 6.84 13.85 6.94 13.88 7.04C13.91 7.13 13.93 7.23 13.95 7.33C13.97 7.43 13.98 7.53 13.99 7.63C13.99 7.73 14 7.83 13.99 7.93C13.99 8.03 13.98 8.13 13.97 8.23C13.96 8.33 13.94 8.43 13.92 8.53C13.9 8.62 13.87 8.72 13.84 8.82C13.8 8.91 13.77 9 13.72 9.1C13.68 9.19 13.64 9.28 13.59 9.36C13.54 9.45 13.48 9.53 13.42 9.61C13.36 9.7 13.3 9.77 13.23 9.85C13.17 9.92 13.1 10 13.02 10.06C12.95 10.13 12.87 10.2 12.79 10.26C12.71 10.32 12.62 10.37 12.54 10.42C12.45 10.47 12.36 10.52 12.27 10.56C12.18 10.61 12.09 10.65 12 10.68C11.9 10.71 11.8 10.74 11.71 10.77C11.61 10.79 11.51 10.81 11.41 10.82C11.31 10.84 11.21 10.84 11.11 10.85C11.01 10.85 10.91 10.85 10.81 10.84C10.71 10.84 10.61 10.83 10.51 10.81C10.41 10.79 10.31 10.77 10.22 10.75C10.12 10.72 10.02 10.69 9.93 10.65C9.84 10.62 9.74 10.58 9.65 10.53C9.56 10.49 9.48 10.44 9.39 10.38C9.31 10.33 9.23 10.27 9.15 10.21C9.07 10.15 8.99 10.08 8.92 10.01C8.85 9.94 8.78 9.87 8.71 9.79C8.65 9.72 8.59 9.64 8.53 9.56C8.47 9.47 8.42 9.39 8.37 9.3C8.32 9.21 8.28 9.12 8.24 9.03C8.2 8.94 8.16 8.84 8.13 8.75C8.1 8.65 8.08 8.55 8.06 8.45C8.04 8.36 8.02 8.26 8.01 8.16C8 8.06 8 7.96 8 7.86ZM0 7.86C0 7.86 0 7.85 0 7.85L0 7.85C0 7.65 0 7.46 0.01 7.27C0.03 7.08 0.04 6.88 0.07 6.69C0.09 6.5 0.12 6.31 0.16 6.12C0.2 5.93 0.24 5.75 0.29 5.56C0.34 5.37 0.4 5.19 0.46 5C0.52 4.82 0.58 4.64 0.66 4.46C0.73 4.28 0.81 4.11 0.89 3.93C0.98 3.76 1.07 3.59 1.16 3.42C1.26 3.25 1.36 3.09 1.46 2.93C1.57 2.76 1.68 2.61 1.79 2.45C1.91 2.3 2.03 2.15 2.16 2C2.28 1.85 2.41 1.71 2.54 1.57C2.68 1.43 2.82 1.3 2.96 1.17C3.11 1.04 3.25 0.92 3.4 0.8C3.55 0.68 3.71 0.56 3.87 0.45C4.03 0.34 4.19 0.24 4.35 0.14C4.41 0.1 4.47 0.08 4.53 0.05C4.59 0.03 4.66 0.02 4.72 0.01C4.79 0 4.85 -0.01 4.92 0C4.98 0 5.05 0.01 5.11 0.02C5.17 0.04 5.24 0.06 5.3 0.09C5.36 0.12 5.41 0.15 5.46 0.19C5.52 0.23 5.57 0.27 5.61 0.32C5.65 0.37 5.69 0.42 5.73 0.48C5.76 0.53 5.79 0.59 5.81 0.66C5.83 0.72 5.85 0.78 5.86 0.85C5.87 0.91 5.87 0.98 5.87 1.04C5.87 1.11 5.86 1.17 5.84 1.24C5.83 1.3 5.8 1.36 5.78 1.42C5.75 1.48 5.72 1.54 5.68 1.59C5.64 1.64 5.59 1.69 5.54 1.73C5.5 1.78 5.44 1.82 5.39 1.85C5.09 2.03 4.81 2.23 4.55 2.45C4.28 2.67 4.03 2.9 3.8 3.16C3.57 3.42 3.36 3.69 3.17 3.97C2.98 4.26 2.81 4.56 2.66 4.87C2.76 4.86 2.86 4.85 2.96 4.85C3.06 4.85 3.16 4.86 3.26 4.87C3.36 4.87 3.46 4.89 3.56 4.91C3.66 4.93 3.76 4.95 3.85 4.98C3.95 5.01 4.04 5.04 4.14 5.08C4.23 5.12 4.32 5.16 4.41 5.21C4.5 5.26 4.58 5.31 4.67 5.36C4.75 5.42 4.83 5.48 4.91 5.54C4.99 5.61 5.06 5.68 5.13 5.75C5.2 5.82 5.27 5.89 5.33 5.97C5.39 6.05 5.45 6.13 5.51 6.22C5.56 6.3 5.61 6.39 5.66 6.48C5.7 6.57 5.75 6.66 5.78 6.75C5.82 6.84 5.85 6.94 5.88 7.04C5.91 7.13 5.93 7.23 5.95 7.33C5.96 7.43 5.98 7.53 5.98 7.63C5.99 7.73 5.99 7.83 5.99 7.93C5.99 8.03 5.98 8.13 5.97 8.23C5.96 8.33 5.94 8.43 5.91 8.53C5.89 8.62 5.87 8.72 5.83 8.82C5.8 8.91 5.76 9 5.72 9.1C5.68 9.19 5.63 9.28 5.58 9.36C5.53 9.45 5.48 9.53 5.42 9.61C5.36 9.7 5.3 9.77 5.23 9.85C5.16 9.92 5.09 10 5.02 10.06C4.94 10.13 4.87 10.2 4.79 10.26C4.71 10.32 4.62 10.37 4.54 10.42C4.45 10.47 4.36 10.52 4.27 10.56C4.18 10.61 4.09 10.65 3.99 10.68C3.9 10.71 3.8 10.74 3.7 10.77C3.61 10.79 3.51 10.81 3.41 10.82C3.31 10.84 3.21 10.84 3.11 10.85C3.01 10.85 2.91 10.85 2.81 10.84C2.71 10.84 2.61 10.83 2.51 10.81C2.41 10.79 2.31 10.77 2.21 10.75C2.12 10.72 2.02 10.69 1.93 10.65C1.83 10.62 1.74 10.58 1.65 10.53C1.56 10.49 1.47 10.44 1.39 10.38C1.3 10.33 1.22 10.27 1.14 10.21C1.06 10.15 0.99 10.08 0.92 10.01C0.84 9.94 0.77 9.87 0.71 9.79C0.64 9.72 0.58 9.64 0.53 9.56C0.47 9.47 0.42 9.39 0.37 9.3C0.32 9.21 0.28 9.12 0.24 9.03C0.2 8.94 0.16 8.84 0.13 8.75C0.1 8.65 0.08 8.55 0.06 8.45C0.04 8.36 0.02 8.26 0.01 8.16C0 8.06 0 7.96 0 7.86Z" fill="#474747" fill-opacity="1.000000" fill-rule="nonzero"/>
</svg>
