<svg width="13.208008" height="14.000000" viewBox="0 0 13.208 14" fill="none" xmlns="http://www.w3.org/2000/svg" xmlns:xlink="http://www.w3.org/1999/xlink">
	<desc>
			Created with Pixso.
	</desc>
	<defs/>
	<path id="path" d="M2.2 14C1.49 14 0 13.55 0 12.06L0 2.64C0 0.79 1.14 0 2.2 0L9.86 0C11.18 0 12.06 0.88 12.06 2.28L12.06 5.45C12.06 5.72 11.88 6.07 11.53 6.07C11.09 5.98 10.91 5.81 10.91 5.45L10.91 2.37C10.91 1.4 10.03 1.05 9.68 1.05L2.28 1.05C1.76 1.05 1.14 1.58 1.05 2.72L1.05 11.53C1.05 12.85 1.93 12.85 2.28 12.85L4.93 12.85C5.28 12.76 5.45 13.11 5.45 13.38C5.45 13.64 5.28 14 4.93 14L2.2 14ZM2.99 2.28L8.98 2.28C9.24 2.28 9.42 2.46 9.42 2.72C9.42 2.99 9.24 3.16 8.98 3.16L2.99 3.16C2.72 3.16 2.55 2.99 2.55 2.72C2.55 2.46 2.72 2.28 2.99 2.28ZM2.99 4.93L8.98 4.93C9.24 4.93 9.42 5.1 9.42 5.37C9.42 5.63 9.24 5.81 8.98 5.81L2.99 5.81C2.72 5.81 2.55 5.63 2.55 5.37C2.55 5.1 2.72 4.93 2.99 4.93ZM2.99 7.48L5.54 7.48C5.81 7.48 5.98 7.66 5.98 7.92C5.98 8.18 5.81 8.36 5.54 8.36L2.99 8.36C2.72 8.36 2.55 8.18 2.55 7.92C2.55 7.66 2.72 7.48 2.99 7.48ZM6.51 13.91C6.33 13.91 6.16 13.73 6.07 13.47L6.07 11.44C6.07 11.35 6.07 11.27 6.16 11.18L10.21 7.13C10.47 6.95 10.74 6.86 11.09 6.86C11.44 6.86 11.71 6.95 11.88 7.22L12.85 8.18C13.11 8.45 13.2 8.71 13.2 8.98C13.2 9.33 13.11 9.59 12.85 9.77L8.8 13.82C8.71 13.91 8.62 13.91 8.54 13.91L6.51 13.91ZM8.27 13.11L6.86 11.71L6.95 13.11L8.27 13.11ZM8.89 12.67L11.27 10.3L9.77 8.8L7.39 11.18L8.89 12.67ZM11.88 9.68L12.32 9.24C12.5 9.06 12.5 8.89 12.32 8.71L11.35 7.83C11.27 7.74 11.18 7.74 11.09 7.74C11 7.74 10.91 7.74 10.83 7.83L10.38 8.27L11.88 9.68Z" fill="#1C1C1E" fill-opacity="1.000000" fill-rule="nonzero"/>
</svg>
